<svg width="31" height="30" viewBox="0 0 31 30" fill="none" xmlns="http://www.w3.org/2000/svg">
<path d="M19.25 21.25V22.5C19.25 24.5711 17.5711 26.25 15.5 26.25C13.4289 26.25 11.75 24.5711 11.75 22.5V21.25M19.25 21.25H11.75M19.25 21.25H23.7381C24.2163 21.25 24.4565 21.25 24.6501 21.1847C25.0199 21.0599 25.3093 20.7696 25.4341 20.3997C25.4997 20.2053 25.4997 19.9644 25.4997 19.4824C25.4997 19.2715 25.4994 19.1661 25.4829 19.0656C25.4517 18.8756 25.378 18.6954 25.2657 18.539C25.2064 18.4564 25.1309 18.381 24.9823 18.2323L24.4954 17.7454C24.3383 17.5883 24.25 17.3752 24.25 17.153V12.5C24.25 7.6675 20.3325 3.74999 15.5 3.75C10.6675 3.75001 6.75 7.66752 6.75 12.5V17.153C6.75 17.3752 6.66155 17.5883 6.50446 17.7454L6.01758 18.2322C5.86845 18.3814 5.7938 18.4563 5.73438 18.5391C5.62207 18.6955 5.54768 18.8755 5.5165 19.0656C5.5 19.1661 5.5 19.2715 5.5 19.4824C5.5 19.9644 5.5 20.2053 5.56557 20.3997C5.69031 20.7695 5.981 21.0599 6.35083 21.1847C6.54445 21.25 6.78377 21.25 7.26194 21.25H11.75" stroke="#0D271A" stroke-width="2" stroke-linecap="round" stroke-linejoin="round"/>
</svg>
