<svg width="31" height="29" viewBox="0 0 31 29" fill="none" xmlns="http://www.w3.org/2000/svg">
<path d="M15.5 10.9998V23.7498M15.5 10.9998C15.5 8.89956 15.5 7.8499 15.9087 7.04773C16.2683 6.34212 16.8415 5.76825 17.5471 5.40873C18.3493 5 19.3996 5 21.4998 5H24.7498C25.4498 5 25.8001 5 26.0675 5.13624C26.3027 5.25608 26.4934 5.44717 26.6133 5.68237C26.7495 5.94976 26.75 6.30006 26.75 7.00012V18.0001C26.75 18.7002 26.7495 19.0497 26.6133 19.3171C26.4934 19.5523 26.3031 19.7441 26.0679 19.8639C25.8008 20 25.4512 20 24.7525 20H21.2117C20.0377 20 19.4496 20 18.9167 20.1618C18.445 20.3051 18.0071 20.5396 17.6262 20.8527C17.196 21.2062 16.87 21.6947 16.2188 22.6715L15.5 23.7498M15.5 10.9998C15.5 8.89956 15.4998 7.8499 15.0911 7.04773C14.7315 6.34212 14.1578 5.76825 13.4522 5.40873C12.6501 5 11.5997 5 9.49951 5H6.24951C5.54945 5 5.19976 5 4.93237 5.13624C4.69717 5.25608 4.50608 5.44717 4.38624 5.68237C4.25 5.94976 4.25 6.30006 4.25 7.00012V18.0001C4.25 18.7002 4.25 19.0497 4.38624 19.3171C4.50608 19.5523 4.69717 19.7441 4.93237 19.8639C5.1995 20 5.54876 20 6.24746 20H9.78841C10.9624 20 11.5493 20 12.0821 20.1618C12.5538 20.3051 12.9939 20.5396 13.3748 20.8527C13.8032 21.2048 14.1272 21.6907 14.7731 22.6597L15.5 23.7498" stroke="#0D271A" stroke-width="3" stroke-linecap="round" stroke-linejoin="round"/>
</svg>
