<svg width="31" height="30" viewBox="0 0 31 30" fill="none" xmlns="http://www.w3.org/2000/svg">
<g id="Navigation / Building_04">
<path id="Vector" d="M3 25H5.5M5.5 25H18M5.5 25V7.75024C5.5 6.35011 5.5 5.64953 5.77248 5.11475C6.01217 4.64434 6.39434 4.26217 6.86475 4.02248C7.39953 3.75 8.10011 3.75 9.50024 3.75H14.0002C15.4004 3.75 16.0995 3.75 16.6342 4.02248C17.1046 4.26217 17.4881 4.64434 17.7278 5.11475C18 5.649 18 6.34874 18 7.74614V15M18 25H25.5M18 25V15M25.5 25H28M25.5 25V15C25.5 13.8351 25.4999 13.253 25.3096 12.7936C25.0558 12.181 24.5696 11.694 23.957 11.4403C23.4976 11.25 22.9145 11.25 21.7497 11.25C20.5848 11.25 20.0024 11.25 19.543 11.4403C18.9304 11.694 18.444 12.181 18.1903 12.7936C18 13.253 18 13.8351 18 15M9.25 12.5H14.25M9.25 8.75H14.25" stroke="white" stroke-width="2" stroke-linecap="round" stroke-linejoin="round"/>
</g>
</svg>
