<svg width="30" height="30" viewBox="0 0 30 30" fill="none" xmlns="http://www.w3.org/2000/svg">
<path d="M5 14.3154V21.0003C5 22.4005 5 23.101 5.27248 23.6358C5.51217 24.1062 5.89434 24.4883 6.36475 24.728C6.899 25.0002 7.59874 25.0002 8.99614 25.0002H21.0039C22.4013 25.0002 23.1 25.0002 23.6342 24.728C24.1046 24.4883 24.4881 24.1062 24.7278 23.6358C25 23.1016 25 22.4021 25 21.0047V14.3154C25 13.6475 24.9994 13.3133 24.9182 13.0025C24.8462 12.7271 24.7281 12.4665 24.5682 12.2309C24.3878 11.9651 24.1369 11.7447 23.6343 11.3049L17.6343 6.0549C16.701 5.2383 16.2344 4.8302 15.7092 4.6749C15.2465 4.53805 14.7533 4.53805 14.2905 4.6749C13.7658 4.83008 13.2998 5.23779 12.368 6.05317L6.36597 11.3049C5.8633 11.7447 5.61255 11.9651 5.43213 12.2309C5.27224 12.4665 5.15319 12.7271 5.08121 13.0025C5 13.3133 5 13.6475 5 14.3154Z" stroke="#000100" stroke-width="2" stroke-linecap="round" stroke-linejoin="round"/>
</svg>
