<svg width="42" height="43" viewBox="0 0 42 43" fill="none" xmlns="http://www.w3.org/2000/svg">
<path d="M33.8109 37.4736C33.8109 40.045 32.049 41.545 29.2395 41.545C26.0728 41.545 23.9061 39.8783 21.8585 34.7117L24.4299 33.4498C25.8347 37.1164 27.0728 38.8069 28.8347 38.8069C29.9776 38.8069 30.668 38.2355 30.668 37.1403C30.668 36.4736 30.3585 35.8783 29.8347 35.3545C29.1442 35.545 28.3823 35.6403 27.549 35.7117L27.0966 33.2593C29.549 32.9974 30.2395 32.4736 30.2395 31.5688C30.2395 30.7831 29.668 30.3783 28.7395 30.3783C27.7871 30.3783 26.8347 30.6403 25.8823 31.1879L24.9776 28.6641C26.168 28.045 27.549 27.6641 29.1442 27.6641C32.1919 27.6641 33.4538 29.2831 33.4538 31.4022C33.4538 32.5212 33.0252 33.4736 32.2157 34.1879C32.7395 34.2593 33.3109 34.3069 33.9538 34.3069C34.7871 34.3069 35.5728 34.2117 36.3347 33.9736V30.5688H34.8347V27.9022H41.8585V30.5688H39.6442V42.7117H36.3347V36.6641C35.7871 36.7831 35.2157 36.8545 34.6442 36.8545C34.3585 36.8545 34.049 36.8307 33.7633 36.8069C33.7871 37.0212 33.8109 37.2355 33.8109 37.4736Z" fill="white"/>
<path d="M10.0549 4.2033L5.17857 20H0L7.3489 0H10.6319L10.0549 4.2033ZM14.0934 20L9.2033 4.2033L8.57143 0H11.8956L19.2857 20H14.0934ZM13.9011 12.5412V16.2637H3.64011V12.5412H13.9011Z" fill="white"/>
<path d="M19 37H14C9.58172 37 6 33.4183 6 29V24" stroke="white" stroke-width="3" stroke-linecap="round"/>
<path d="M22 9H27C31.4183 9 35 12.5817 35 17V22" stroke="white" stroke-width="3" stroke-linecap="round"/>
</svg>
